<svg width="1024" height="1024" viewBox="0 0 1024 1024" fill="none" xmlns="http://www.w3.org/2000/svg">
  <rect width="1024" height="1024" rx="240" fill="#F7F5EE"/>
  <rect x="112" y="112" width="800" height="800" rx="212" fill="#FCFBF7" stroke="#D9E7E1" stroke-width="22"/>
  <rect x="186" y="186" width="652" height="652" rx="176" fill="url(#bgGlow)"/>
  <path d="M382 314C321.249 314 272 363.249 272 424V600C272 660.751 321.249 710 382 710H524V616H402C361.131 616 328 582.869 328 542V482C328 441.131 361.131 408 402 408H524V314H382Z" fill="#0D6457"/>
  <path d="M576 314V710H670C730.751 710 780 660.751 780 600V548H686V582C686 601.882 669.882 618 650 618H632V314H576Z" fill="#32566B"/>
  <path d="M438 256H586" stroke="#79C0B5" stroke-width="26" stroke-linecap="round"/>
  <path d="M438 768H650" stroke="#B8CDD8" stroke-width="22" stroke-linecap="round" opacity="0.85"/>
  <circle cx="742" cy="292" r="42" fill="#EACF72"/>
  <circle cx="286" cy="742" r="26" fill="#79C0B5" opacity="0.75"/>
  <defs>
    <linearGradient id="bgGlow" x1="222" y1="214" x2="812" y2="826" gradientUnits="userSpaceOnUse">
      <stop stop-color="#F2FBF7"/>
      <stop offset="1" stop-color="#EFF4FA"/>
    </linearGradient>
  </defs>
</svg>
