<svg width="2048" height="2048" viewBox="0 0 1024 1024" fill="none" xmlns="http://www.w3.org/2000/svg">
  <defs>
    <linearGradient id="bg" x1="96" y1="92" x2="928" y2="936" gradientUnits="userSpaceOnUse">
      <stop stop-color="#FBFCFA"/>
      <stop offset="1" stop-color="#EEF4F1"/>
    </linearGradient>
    <linearGradient id="panel" x1="144" y1="140" x2="868" y2="884" gradientUnits="userSpaceOnUse">
      <stop stop-color="#FFFFFF" stop-opacity="0.98"/>
      <stop offset="1" stop-color="#F5F8F6" stop-opacity="0.94"/>
    </linearGradient>
    <linearGradient id="tealStroke" x1="264" y1="248" x2="766" y2="766" gradientUnits="userSpaceOnUse">
      <stop stop-color="#0E655C"/>
      <stop offset="1" stop-color="#0A4F48"/>
    </linearGradient>
    <linearGradient id="tealAccent" x1="546" y1="322" x2="744" y2="694" gradientUnits="userSpaceOnUse">
      <stop stop-color="#2E8077"/>
      <stop offset="1" stop-color="#145E55"/>
    </linearGradient>
    <filter id="shadow" x="88" y="88" width="848" height="848" filterUnits="userSpaceOnUse" color-interpolation-filters="sRGB">
      <feFlood flood-opacity="0" result="BackgroundImageFix"/>
      <feColorMatrix in="SourceAlpha" type="matrix" values="0 0 0 0 0 0 0 0 0 0 0 0 0 0 0 0 0 0 127 0" result="hardAlpha"/>
      <feOffset dy="28"/>
      <feGaussianBlur stdDeviation="32"/>
      <feColorMatrix type="matrix" values="0 0 0 0 0.063 0 0 0 0 0.239 0 0 0 0 0.22 0 0 0 0.12 0"/>
      <feBlend mode="normal" in2="BackgroundImageFix" result="effect1_dropShadow_1_1"/>
      <feBlend mode="normal" in="SourceGraphic" in2="effect1_dropShadow_1_1" result="shape"/>
    </filter>
  </defs>

  <rect width="1024" height="1024" rx="248" fill="url(#bg)"/>

  <g filter="url(#shadow)">
    <rect x="112" y="112" width="800" height="800" rx="212" fill="url(#panel)"/>
    <rect x="112" y="112" width="800" height="800" rx="212" stroke="#D9E5E0" stroke-width="8"/>

    <path
      d="M706 272C674 236 626 214 570 214C434 214 320 328 320 512C320 696 434 810 570 810C626 810 674 788 706 752"
      stroke="url(#tealStroke)"
      stroke-width="92"
      stroke-linecap="round"
      stroke-linejoin="round"/>

    <path
      d="M574 318V702H752"
      stroke="url(#tealAccent)"
      stroke-width="92"
      stroke-linecap="round"
      stroke-linejoin="round"/>

    <circle cx="760" cy="286" r="22" fill="#0E655C" fill-opacity="0.18"/>
    <circle cx="800" cy="326" r="12" fill="#0E655C" fill-opacity="0.28"/>
  </g>
</svg>
